<svg width="680" height="454" xmlns="http://www.w3.org/2000/svg" xmlns:xlink="http://www.w3.org/1999/xlink" overflow="hidden"><g><rect x="0" y="0" width="680" height="453.722" fill="#FFFFFF" fill-opacity="0"/><path d="M56 255.406 627 255.406 263.955 306.488 159.423 306.217 56 255.406Z" fill="#D1D1D1" fill-rule="evenodd"/><rect x="56.5" y="25.5407" width="286" height="39.0621" stroke="#042433" stroke-width="1.33268" stroke-miterlimit="8" fill="none"/><text font-family="DengXian,DengXian_MSFontService,sans-serif" font-weight="400" font-size="19" transform="matrix(1 0 0 1.00159 170.801 50)">源端口</text><rect x="342.5" y="25.5407" width="285" height="39.0621" stroke="#042433" stroke-width="1.33268" stroke-miterlimit="8" fill="none"/><text font-family="DengXian,DengXian_MSFontService,sans-serif" font-weight="400" font-size="19" transform="matrix(1 0 0 1.00159 446.954 50)">目的端口</text><rect x="56.5" y="64.6028" width="571" height="38.0605" stroke="#042433" stroke-width="1.33268" stroke-miterlimit="8" fill="none"/><text font-family="DengXian,DengXian_MSFontService,sans-serif" font-weight="400" font-size="19" transform="matrix(1 0 0 1.00159 322.87 89)">序号</text><rect x="56.5" y="102.663" width="571" height="38.0606" stroke="#042433" stroke-width="1.33268" stroke-miterlimit="8" fill="none"/><text font-family="DengXian,DengXian_MSFontService,sans-serif" font-weight="400" font-size="19" transform="matrix(1 0 0 1.00159 313.542 127)">确认号</text><rect x="56.5" y="140.724" width="95" height="39.0621" stroke="#042433" stroke-width="1.33268" stroke-miterlimit="8" fill="none"/><text font-family="DengXian,DengXian_MSFontService,sans-serif" font-weight="400" font-size="19" transform="matrix(1 0 0 1.00159 66.0343 166)">数据偏移</text><rect x="151.5" y="140.724" width="58" height="39.0621" stroke="#042433" stroke-width="1.33268" stroke-miterlimit="8" fill="none"/><text font-family="DengXian,DengXian_MSFontService,sans-serif" font-weight="400" font-size="19" transform="matrix(1 0 0 1.00159 161.331 166)">保留</text><rect x="209.5" y="140.724" width="21.9999" height="39.0621" stroke="#042433" stroke-width="1.33268" stroke-miterlimit="8" fill="none"/><text font-family="Aptos,Aptos_MSFontService,sans-serif" font-weight="700" font-size="9" transform="matrix(1 0 0 1.00159 217.01 152)">U</text><text font-family="Aptos,Aptos_MSFontService,sans-serif" font-weight="700" font-size="9" transform="matrix(1 0 0 1.00159 217.01 163)">R</text><text font-family="Aptos,Aptos_MSFontService,sans-serif" font-weight="700" font-size="9" transform="matrix(1 0 0 1.00159 217.01 174)">G</text><rect x="231.5" y="140.724" width="22" height="39.0621" stroke="#042433" stroke-width="1.33268" stroke-miterlimit="8" fill="none"/><text font-family="Aptos,Aptos_MSFontService,sans-serif" font-weight="700" font-size="9" transform="matrix(1 0 0 1.00159 239.044 152)">A</text><text font-family="Aptos,Aptos_MSFontService,sans-serif" font-weight="700" font-size="9" transform="matrix(1 0 0 1.00159 239.044 163)">C</text><text font-family="Aptos,Aptos_MSFontService,sans-serif" font-weight="700" font-size="9" transform="matrix(1 0 0 1.00159 239.044 174)">K</text><rect x="253.5" y="140.724" width="22" height="39.0621" stroke="#042433" stroke-width="1.33268" stroke-miterlimit="8" fill="none"/><text font-family="Aptos,Aptos_MSFontService,sans-serif" font-weight="700" font-size="9" transform="matrix(1 0 0 1.00159 260.994 152)">P</text><text font-family="Aptos,Aptos_MSFontService,sans-serif" font-weight="700" font-size="9" transform="matrix(1 0 0 1.00159 260.994 163)">S</text><text font-family="Aptos,Aptos_MSFontService,sans-serif" font-weight="700" font-size="9" transform="matrix(1 0 0 1.00159 260.994 174)">H</text><rect x="275.5" y="140.724" width="22" height="39.0621" stroke="#042433" stroke-width="1.33268" stroke-miterlimit="8" fill="none"/><text font-family="Aptos,Aptos_MSFontService,sans-serif" font-weight="700" font-size="9" transform="matrix(1 0 0 1.00159 283.528 152)">R</text><text font-family="Aptos,Aptos_MSFontService,sans-serif" font-weight="700" font-size="9" transform="matrix(1 0 0 1.00159 283.528 163)">S</text><text font-family="Aptos,Aptos_MSFontService,sans-serif" font-weight="700" font-size="9" transform="matrix(1 0 0 1.00159 283.528 174)">T</text><rect x="297.5" y="140.724" width="21.9999" height="39.0621" stroke="#042433" stroke-width="1.33268" stroke-miterlimit="8" fill="none"/><text font-family="Aptos,Aptos_MSFontService,sans-serif" font-weight="700" font-size="9" transform="matrix(1 0 0 1.00159 305.145 152)">S</text><text font-family="Aptos,Aptos_MSFontService,sans-serif" font-weight="700" font-size="9" transform="matrix(1 0 0 1.00159 305.145 163)">Y</text><text font-family="Aptos,Aptos_MSFontService,sans-serif" font-weight="700" font-size="9" transform="matrix(1 0 0 1.00159 305.145 174)">N</text><rect x="319.5" y="140.724" width="23.0001" height="39.0621" stroke="#042433" stroke-width="1.33268" stroke-miterlimit="8" fill="none"/><text font-family="Aptos,Aptos_MSFontService,sans-serif" font-weight="700" font-size="9" transform="matrix(1 0 0 1.00159 327.179 152)">F</text><text font-family="Aptos,Aptos_MSFontService,sans-serif" font-weight="700" font-size="9" transform="matrix(1 0 0 1.00159 327.259 163)">I</text><text font-family="Aptos,Aptos_MSFontService,sans-serif" font-weight="700" font-size="9" transform="matrix(1 0 0 1.00159 327.179 174)">N</text><rect x="342.5" y="140.724" width="285" height="39.0621" stroke="#042433" stroke-width="1.33268" stroke-miterlimit="8" fill="none"/><text font-family="DengXian,DengXian_MSFontService,sans-serif" font-weight="400" font-size="19" transform="matrix(1 0 0 1.00159 465.611 166)">窗口</text><rect x="56.5" y="179.786" width="286" height="38.0605" stroke="#042433" stroke-width="1.33268" stroke-miterlimit="8" fill="none"/><text font-family="DengXian,DengXian_MSFontService,sans-serif" font-weight="400" font-size="19" transform="matrix(1 0 0 1.00159 170.801 204)">检验和</text><rect x="342.5" y="179.786" width="285" height="38.0605" stroke="#042433" stroke-width="1.33268" stroke-miterlimit="8" fill="none"/><text font-family="DengXian,DengXian_MSFontService,sans-serif" font-weight="400" font-size="19" transform="matrix(1 0 0 1.00159 446.953 204)">紧急指针</text><rect x="56.5" y="217.847" width="448" height="38.0605" stroke="#042433" stroke-width="1.33268" stroke-miterlimit="8" fill="none"/><text font-family="DengXian,DengXian_MSFontService,sans-serif" font-weight="400" font-size="19" transform="matrix(1 0 0 1.00159 205.346 243)">选项（可变长度）</text><rect x="504.5" y="217.847" width="123" height="38.0605" stroke="#042433" stroke-width="1.33268" stroke-miterlimit="8" fill="none"/><text font-family="DengXian,DengXian_MSFontService,sans-serif" font-weight="400" font-size="19" transform="matrix(1 0 0 1.00159 546.8 243)">填充</text><rect x="159.5" y="306.988" width="105" height="38.0605" stroke="#042433" stroke-width="1.33268" stroke-miterlimit="8" fill="#D1D1D1"/><text font-family="Aptos,Aptos_MSFontService,sans-serif" font-weight="400" font-size="19" transform="matrix(1 0 0 1.00159 176.79 332)">TCP首部</text><rect x="264.5" y="306.988" width="338" height="38.0605" stroke="#042433" stroke-width="1.33268" stroke-miterlimit="8" fill="#747474"/><text font-family="Aptos,Aptos_MSFontService,sans-serif" font-weight="400" font-size="19" transform="matrix(1 0 0 1.00159 379.889 332)">TCP数据部分</text><rect x="159.5" y="391.122" width="443" height="38.0605" stroke="#042433" stroke-width="1.33268" stroke-miterlimit="8" fill="#747474"/><text font-family="Aptos,Aptos_MSFontService,sans-serif" font-weight="400" font-size="19" transform="matrix(1 0 0 1.00159 335.402 416)">IP数据部分</text><path d="M602.5 352.06C602.5 354.826 594.097 357.068 583.731 357.068L399.769 357.068C389.403 357.068 381 359.31 381 362.076 381 359.31 372.597 357.068 362.231 357.068L178.269 357.068C167.903 357.068 159.5 354.826 159.5 352.06" stroke="#000000" stroke-width="1.3348" stroke-miterlimit="8" fill="none" fill-rule="evenodd"/><path d="M374.5 377.601 377.75 377.601 377.75 364.079 384.25 364.079 384.25 377.601 387.5 377.601 381 384.111Z" stroke="#000000" stroke-width="1.33268" stroke-miterlimit="8" fill="none" fill-rule="evenodd"/><rect x="53.5" y="391.122" width="106" height="38.0605" stroke="#042433" stroke-width="1.33268" stroke-miterlimit="8" fill="#D1D1D1"/><text font-family="Aptos,Aptos_MSFontService,sans-serif" font-weight="400" font-size="19" transform="matrix(1 0 0 1.00159 79.313 416)">IP首部</text></g></svg>